<svg xmlns="http://www.w3.org/2000/svg" viewBox="0 0 282.13 194.53"><defs><style>.cls-1{fill:#8c4a2f;}.cls-2{fill:#666;}</style></defs><g id="Layer_2" data-name="Layer 2"><g id="Layer_1-2" data-name="Layer 1"><polygon class="cls-1" points="169.21 0 169.21 9.22 163.84 12.39 163.84 3.03 169.21 0"/><polygon class="cls-1" points="118.29 53.55 118.29 81.35 126.27 81.35 126.27 77.5 131.64 74.47 131.64 81.35 139.75 81.35 139.75 69.79 145.12 66.63 145.12 81.35 153.1 81.35 153.1 62.08 158.47 58.92 158.47 86.72 112.92 86.72 112.92 32.49 118.29 29.32 118.29 48.18 126.27 48.18 126.27 24.78 131.64 21.61 131.64 48.18 139.75 48.18 139.75 17.07 145.12 13.9 145.12 48.18 153.1 48.18 153.1 9.22 158.47 6.19 158.47 53.55 118.29 53.55"/><polygon class="cls-1" points="169.21 15.42 169.21 86.72 163.84 86.72 163.84 18.58 169.21 15.42"/><path class="cls-2" d="M22.93,187.16a1.56,1.56,0,0,0,.34-1.16v-7.94c0-.19.1-.28.3-.28h1c.2,0,.3.09.3.28v8a3.08,3.08,0,0,1-.74,2.3,3.25,3.25,0,0,1-2.34.72H7.68a4.06,4.06,0,0,1-2.66-.7,3,3,0,0,1-.8-2.38v-6.12c0-.19.09-.28.29-.28h1c.2,0,.29.09.29.28V186a1.54,1.54,0,0,0,.35,1.14,1.44,1.44,0,0,0,1.08.34H21.82A1.62,1.62,0,0,0,22.93,187.16ZM12,176.69c-.2,0-.3-.1-.3-.28v-1.68c0-.19.1-.28.3-.28h1.54c.2,0,.3.09.3.28v1.68c0,.18-.1.28-.3.28Zm3.79,0a.26.26,0,0,1-.29-.28v-1.68c0-.19.1-.28.29-.28h1.54c.2,0,.3.09.3.28v1.68c0,.18-.1.28-.3.28Z"/><path class="cls-2" d="M36.31,187.48h3.85a1.58,1.58,0,0,0,1.09-.32,1.61,1.61,0,0,0,.34-1.16V170.31a.26.26,0,0,1,.29-.28h1c.2,0,.3.1.3.28v15.21a3.77,3.77,0,0,1-.8,2.74,3.77,3.77,0,0,1-2.67.79H28.28c-.2,0-.3-.1-.3-.28v-1c0-.19.1-.28.3-.28h6.4V174.25q0-.27.3-.27h1c.19,0,.29.09.29.27Z"/><path class="cls-2" d="M49.74,194.53c-.2,0-.3-.1-.3-.28v-1c0-.19.1-.28.3-.28h3.61a3.73,3.73,0,0,0,2.15-.5,2.36,2.36,0,0,0,.7-2v-1.39H52.85a8.66,8.66,0,0,1-2.25-.28,4.36,4.36,0,0,1-1.74-.93,4.14,4.14,0,0,1-1.11-1.72,9.22,9.22,0,0,1,0-5.34,5.49,5.49,0,0,1,1.14-1.93,4.9,4.9,0,0,1,1.68-1.17,5.34,5.34,0,0,1,2.09-.41,4.81,4.81,0,0,1,3.88,1.49,6.84,6.84,0,0,1,1.26,4.53v7.13a4.37,4.37,0,0,1-.95,3.14,4.1,4.1,0,0,1-3,1Zm3-15.69A3.26,3.26,0,0,0,50.08,180a5.33,5.33,0,0,0-1,3.5,6.66,6.66,0,0,0,.22,1.87,2.58,2.58,0,0,0,1.88,1.89,5.88,5.88,0,0,0,1.66.21H56.2v-4.14a5.94,5.94,0,0,0-.8-3.33A3,3,0,0,0,52.7,178.84Z"/><path class="cls-2" d="M62.12,170.31c0-.18.1-.28.3-.28h1c.2,0,.3.1.3.28V186a1.45,1.45,0,0,0,.38,1.16,1.75,1.75,0,0,0,1.13.32h1.48c.79,0,1.18.26,1.18.78s-.09.6-.28.67a2.48,2.48,0,0,1-.9.12H65.59a3.94,3.94,0,0,1-2.66-.72,3,3,0,0,1-.81-2.33Z"/><path class="cls-2" d="M74,177.27a6.86,6.86,0,0,1,2.4.4,4.9,4.9,0,0,1,1.76,1.09,4.58,4.58,0,0,1,1.07,1.63,5.6,5.6,0,0,1,.14,3.59,6.6,6.6,0,0,1-.65,1.43,5.67,5.67,0,0,1-1,1.2,5.22,5.22,0,0,1-1.17.87h5.1a2.2,2.2,0,0,1,.88.13c.2.08.3.31.3.68a.62.62,0,0,1-.28.59,1.86,1.86,0,0,1-.9.17H77.86q-1.06,0-2-.09a4.12,4.12,0,0,1-1.81-.59A5.24,5.24,0,0,1,72,189c-.74.06-1.4.09-2,.09H66.75c-.79,0-1.19-.27-1.19-.82a.65.65,0,0,1,.28-.6,2,2,0,0,1,.91-.15H71.4a8.29,8.29,0,0,1-2.13-2.13,5,5,0,0,1-.83-2.85,5.13,5.13,0,0,1,.38-2,5.23,5.23,0,0,1,1.09-1.68,5.08,5.08,0,0,1,1.74-1.15A6.21,6.21,0,0,1,74,177.27Zm0,1.63a4.47,4.47,0,0,0-1.53.25,3.67,3.67,0,0,0-1.21.72,3.4,3.4,0,0,0-.82,1.15,4,4,0,0,0,0,3,4.88,4.88,0,0,0,.84,1.31,6.07,6.07,0,0,0,1.23,1,8.34,8.34,0,0,0,1.47.72,8.34,8.34,0,0,0,1.47-.72,5.46,5.46,0,0,0,1.21-1,4.85,4.85,0,0,0,.83-1.31,3.85,3.85,0,0,0,.31-1.54,3.38,3.38,0,0,0-1.08-2.68A4,4,0,0,0,74,178.9ZM71.31,175a.25.25,0,0,1-.29-.28v-1.68c0-.19.09-.28.29-.28h1.54c.2,0,.3.09.3.28v1.68c0,.18-.1.28-.3.28Zm3.8,0c-.2,0-.3-.1-.3-.28v-1.68c0-.19.1-.28.3-.28h1.54c.19,0,.29.09.29.28v1.68a.26.26,0,0,1-.29.28Z"/><path class="cls-2" d="M95.53,185.05a4.12,4.12,0,0,0,.14,1.2,1.91,1.91,0,0,0,.41.75,1.31,1.31,0,0,0,.65.38,3.25,3.25,0,0,0,.85.1h.62a1.82,1.82,0,0,1,.88.17.66.66,0,0,1,.3.64.64.64,0,0,1-.28.62,2.21,2.21,0,0,1-.9.14h-.51a5.88,5.88,0,0,1-1.91-.3,2.48,2.48,0,0,1-1.37-1.1,3.71,3.71,0,0,1-1.72,1.23,7.1,7.1,0,0,1-2.34.36,7.48,7.48,0,0,1-2.38-.36,3.6,3.6,0,0,1-1.73-1.2A2.34,2.34,0,0,1,85,188.82a5.14,5.14,0,0,1-1.55.23H81.69a2.19,2.19,0,0,1-.89-.14.62.62,0,0,1-.3-.62c0-.37.09-.6.28-.68a2.27,2.27,0,0,1,.91-.13h1.63a2.16,2.16,0,0,0,.65-.11,1.51,1.51,0,0,0,.59-.41,2.11,2.11,0,0,0,.44-.77,3.37,3.37,0,0,0,.18-1.2c0-.22,0-.46,0-.71s0-.51,0-.77c0-4.16,1.75-6.24,5.23-6.24a5,5,0,0,1,3.93,1.49,6.49,6.49,0,0,1,1.33,4.47c0,.24,0,.55,0,.94A5.88,5.88,0,0,1,95.53,185.05Zm-5.18-6.21A3,3,0,0,0,87.67,180a5.68,5.68,0,0,0-.83,3.28,5.38,5.38,0,0,0,.83,3.29,3.16,3.16,0,0,0,2.68,1.08,3.21,3.21,0,0,0,2.7-1.08,5.31,5.31,0,0,0,.85-3.29,5.61,5.61,0,0,0-.85-3.27A3.06,3.06,0,0,0,90.35,178.84Z"/><path class="cls-2" d="M103.5,185.38a1.76,1.76,0,0,0,.78,1.58,3.72,3.72,0,0,0,2.09.52h.18a2,2,0,0,1,.89.15.62.62,0,0,1,.3.6.7.7,0,0,1-.27.63,1.73,1.73,0,0,1-.92.19,7.36,7.36,0,0,1-2.13-.27,2,2,0,0,1-1.31-1.22,2.84,2.84,0,0,1-1,1.08,3,3,0,0,1-1.71.41H98.16a2,2,0,0,1-.87-.16.59.59,0,0,1-.31-.6.67.67,0,0,1,.29-.64,1.9,1.9,0,0,1,.89-.17h2.11a2.4,2.4,0,0,0,.89-.14.94.94,0,0,0,.47-.43,2.16,2.16,0,0,0,.19-.74c0-.3.05-.65.05-1V170.31a.26.26,0,0,1,.29-.28h1c.2,0,.3.1.3.28Z"/><path class="cls-2" d="M106.52,189.05a2.26,2.26,0,0,1-.89-.14c-.2-.1-.29-.3-.29-.62s.09-.58.28-.67a2.18,2.18,0,0,1,.9-.14h2.16a1.72,1.72,0,0,0,1.15-.34,1.43,1.43,0,0,0,.4-1.14V170.31a.25.25,0,0,1,.29-.28h1c.2,0,.3.1.3.28v15.21a7.27,7.27,0,0,1-.15,1.57,2.37,2.37,0,0,1-.54,1.1,2.22,2.22,0,0,1-1,.65,5.87,5.87,0,0,1-1.73.21Z"/><path class="cls-2" d="M141.05,190.81a6.58,6.58,0,0,1-.18,1.62,2.39,2.39,0,0,1-.68,1.16,3.33,3.33,0,0,1-1.41.7,9.36,9.36,0,0,1-2.33.24h-7.39a6.93,6.93,0,0,1-4.84-1.6,5.65,5.65,0,0,1-1.75-4.42,8.74,8.74,0,0,1,.59-3.21,10.64,10.64,0,0,1,1.36-2.57q.12-.19.39,0l.94.56a.22.22,0,0,1,.09.36c-.17.26-.36.56-.56.91a9.14,9.14,0,0,0-.55,1.13,7.57,7.57,0,0,0-.4,1.3,6.48,6.48,0,0,0-.15,1.38,5.11,5.11,0,0,0,.4,2.1,3.79,3.79,0,0,0,1.1,1.41,4.35,4.35,0,0,0,1.63.79,8.5,8.5,0,0,0,2,.23h6.76a6.3,6.3,0,0,0,2.5-.35,1.49,1.49,0,0,0,.76-1.52v-2H136a7.84,7.84,0,0,1-2.25-.31,4.34,4.34,0,0,1-1.74-1,4.59,4.59,0,0,1-1.11-1.8,8.21,8.21,0,0,1-.38-2.7,7.74,7.74,0,0,1,.4-2.63,5.35,5.35,0,0,1,1.11-1.86,4.58,4.58,0,0,1,1.68-1.1,6,6,0,0,1,2.1-.37c3.48,0,5.23,2,5.23,6Zm-5.26-12a3.16,3.16,0,0,0-2.6,1.17,5.12,5.12,0,0,0-.94,3.28,4.61,4.61,0,0,0,.92,3.21,3.77,3.77,0,0,0,2.85,1h3.34v-4.17a5.62,5.62,0,0,0-.84-3.27A3.1,3.1,0,0,0,135.79,178.84Zm-2.74-3.8c-.2,0-.3-.1-.3-.28v-1.68c0-.19.1-.28.3-.28h1.54c.19,0,.29.09.29.28v1.68a.26.26,0,0,1-.29.28Zm3.79,0c-.2,0-.3-.1-.3-.28v-1.68c0-.19.1-.28.3-.28h1.54c.2,0,.3.09.3.28v1.68c0,.18-.1.28-.3.28Z"/><path class="cls-2" d="M145.29,170.31a.25.25,0,0,1,.29-.28h1c.2,0,.3.1.3.28V186a1.45,1.45,0,0,0,.38,1.16,1.75,1.75,0,0,0,1.13.32h1.48c.79,0,1.18.26,1.18.78s-.09.6-.28.67a2.48,2.48,0,0,1-.9.12h-1.16a3.94,3.94,0,0,1-2.66-.72,3,3,0,0,1-.8-2.33Z"/><path class="cls-2" d="M163.75,185.05a4.08,4.08,0,0,0,.15,1.2,1.69,1.69,0,0,0,.41.75,1.23,1.23,0,0,0,.65.38,3.15,3.15,0,0,0,.85.1h.62a1.85,1.85,0,0,1,.88.17.67.67,0,0,1,.29.64.63.63,0,0,1-.28.62,2.21,2.21,0,0,1-.9.14h-.5a5.84,5.84,0,0,1-1.91-.3,2.53,2.53,0,0,1-1.38-1.1,3.63,3.63,0,0,1-1.71,1.23,7.14,7.14,0,0,1-2.34.36,7.54,7.54,0,0,1-2.39-.36,3.64,3.64,0,0,1-1.73-1.2,2.34,2.34,0,0,1-1.26,1.14,5.07,5.07,0,0,1-1.54.23h-1.75a2.23,2.23,0,0,1-.89-.14.62.62,0,0,1-.3-.62c0-.37.1-.6.28-.68a2.27,2.27,0,0,1,.91-.13h1.63a2.11,2.11,0,0,0,.65-.11,1.38,1.38,0,0,0,.59-.41,2.27,2.27,0,0,0,.45-.77,3.37,3.37,0,0,0,.18-1.2c0-.22,0-.46,0-.71s0-.51,0-.77q0-6.24,5.23-6.24a5,5,0,0,1,3.92,1.49,6.49,6.49,0,0,1,1.34,4.47c0,.24,0,.55,0,.94A5.88,5.88,0,0,1,163.75,185.05Zm-5.17-6.21a3.05,3.05,0,0,0-2.69,1.19,5.68,5.68,0,0,0-.82,3.28,5.39,5.39,0,0,0,.82,3.29,3.18,3.18,0,0,0,2.69,1.08,3.21,3.21,0,0,0,2.7-1.08,5.31,5.31,0,0,0,.84-3.29,5.62,5.62,0,0,0-.84-3.27A3.06,3.06,0,0,0,158.58,178.84Z"/><path class="cls-2" d="M168.37,183a8.32,8.32,0,0,1,.21-1.69,5,5,0,0,1,.84-1.88,5.37,5.37,0,0,1,1.83-1.51,6.68,6.68,0,0,1,3.14-.63,6.34,6.34,0,0,1,2.86.59,5.65,5.65,0,0,1,1.94,1.57.25.25,0,0,1-.09.39l-.89.61a.27.27,0,0,1-.41,0,4.3,4.3,0,0,0-3.44-1.57,5.3,5.3,0,0,0-1.93.32,3.39,3.39,0,0,0-2,2.17,4.9,4.9,0,0,0-.24,1.56,4.6,4.6,0,0,0,.42,2.07,5,5,0,0,0,1,1.39,4.42,4.42,0,0,0,1.13.81,4.09,4.09,0,0,0,.83.32h6.4c.2,0,.3.09.3.28v1c0,.18-.1.28-.3.28H166.39a2.23,2.23,0,0,1-.89-.14.59.59,0,0,1-.3-.59c0-.37.1-.61.28-.7a2.24,2.24,0,0,1,.91-.14h3.88a5.89,5.89,0,0,1-1.35-1.83A6,6,0,0,1,168.37,183Z"/><path class="cls-2" d="M191.28,187.48h3.85a1.58,1.58,0,0,0,1.09-.32,1.61,1.61,0,0,0,.34-1.16V170.31a.26.26,0,0,1,.29-.28h1c.2,0,.3.1.3.28v15.21a2.94,2.94,0,0,1-3.47,3.53H183.25c-.2,0-.3-.1-.3-.28v-1c0-.19.1-.28.3-.28h6.4V174.25q0-.27.3-.27h1c.19,0,.29.09.29.27Zm-2.55-16.38a4.5,4.5,0,0,1-.4-.79,2.92,2.92,0,0,1-.16-1.06,2.83,2.83,0,0,1,.13-.81,2.62,2.62,0,0,1,.46-.85,2.75,2.75,0,0,1,.89-.69,3.55,3.55,0,0,1,2.74,0,2.05,2.05,0,0,1,1,.74.24.24,0,0,1-.06.31l-.45.36a.21.21,0,0,1-.32,0,2.19,2.19,0,0,0-.67-.45,2.36,2.36,0,0,0-.9-.16,1.46,1.46,0,0,0-1.2.5,1.94,1.94,0,0,0-.15,2.22,2.61,2.61,0,0,0,.6.72h3.12c.12,0,.17.06.17.19V172c0,.13-.05.2-.17.2h-5.72c-.12,0-.18-.07-.18-.2v-.67c0-.13.06-.19.18-.19Z"/><path class="cls-2" d="M204.26,188.77a.26.26,0,0,1-.29.28h-1c-.2,0-.3-.1-.3-.28V170.31c0-.18.1-.28.3-.28h1a.26.26,0,0,1,.29.28Z"/><path class="cls-2" d="M238.75,187.48a6.68,6.68,0,0,0,1.32-.1,1.34,1.34,0,0,0,.76-.38,1.31,1.31,0,0,0,.34-.74,7.67,7.67,0,0,0,.08-1.21v-7c0-.19.1-.28.29-.28h1.05c.19,0,.29.09.29.28v7.32a5.45,5.45,0,0,1-.27,1.89,2.64,2.64,0,0,1-.72,1.1,2.51,2.51,0,0,1-1.08.54,6.33,6.33,0,0,1-1.34.14h-1.36a4.12,4.12,0,0,1-1.63-.35,2.44,2.44,0,0,1-1.18-1.08,2.55,2.55,0,0,1-1,1,3.71,3.71,0,0,1-1.84.38h-1.36a4.08,4.08,0,0,1-1.32-.23,2.8,2.8,0,0,1-1.12-.67v.36a6.7,6.7,0,0,1-.4,2.37,5,5,0,0,1-1.21,1.86A5.74,5.74,0,0,1,225,194a9.28,9.28,0,0,1-3,.44,9,9,0,0,1-2.85-.42,5.78,5.78,0,0,1-2.1-1.18,5.27,5.27,0,0,1-1.29-1.86,6.46,6.46,0,0,1-.44-2.41,8,8,0,0,1,.62-3.21,11.43,11.43,0,0,1,1.33-2.41q.12-.16.42,0l.92.56a.23.23,0,0,1,.09.36,13.51,13.51,0,0,0-1.13,2.06,5.9,5.9,0,0,0-.53,2.47,4.18,4.18,0,0,0,.5,2.17,3.81,3.81,0,0,0,1.27,1.34,5,5,0,0,0,1.67.69,8.18,8.18,0,0,0,1.73.19,7.92,7.92,0,0,0,1.93-.22,4,4,0,0,0,1.55-.73,3.29,3.29,0,0,0,1-1.3,4.54,4.54,0,0,0,.37-1.94v-7.91c0-.19.1-.28.29-.28h1c.2,0,.29.09.29.28v4.75a1.74,1.74,0,0,0,.81,1.54,3.85,3.85,0,0,0,2.14.53,9.15,9.15,0,0,0,1.33-.08,1.32,1.32,0,0,0,.74-.35,1.29,1.29,0,0,0,.32-.74,10.58,10.58,0,0,0,.06-1.26v-4.39c0-.19.09-.28.29-.28h1c.19,0,.29.09.29.28v4.89a1.59,1.59,0,0,0,.83,1.44A4.31,4.31,0,0,0,238.75,187.48Z"/><path class="cls-2" d="M247,170.31c0-.18.1-.28.3-.28h1c.2,0,.3.1.3.28V186a1.48,1.48,0,0,0,.38,1.16,1.77,1.77,0,0,0,1.13.32h1.48c.79,0,1.19.26,1.19.78s-.1.6-.28.67a2.51,2.51,0,0,1-.91.12h-1.15a4,4,0,0,1-2.67-.72A3,3,0,0,1,247,186Z"/><path class="cls-2" d="M271.89,185.38a5.73,5.73,0,0,1-.26,1.89,2.56,2.56,0,0,1-.73,1.1,2.42,2.42,0,0,1-1.07.54,6.31,6.31,0,0,1-1.33.14h-1.21a4,4,0,0,1-1.62-.35,2.42,2.42,0,0,1-1.19-1.08,2.53,2.53,0,0,1-1,1,3.74,3.74,0,0,1-1.84.38h-1.36a4.05,4.05,0,0,1-1.63-.35,2.42,2.42,0,0,1-1.19-1.08,2.64,2.64,0,0,1-1,1,3.78,3.78,0,0,1-1.88.38h-3.18a1.36,1.36,0,0,1-.71-.17.57.57,0,0,1-.26-.51c0-.37.09-.61.28-.72a1.86,1.86,0,0,1,.9-.17h3a2.08,2.08,0,0,0,.88-.15,1.05,1.05,0,0,0,.46-.45,2,2,0,0,0,.18-.76c0-.3,0-.66,0-1.07v-4.39c0-.19.09-.28.29-.28h1c.2,0,.3.09.3.28v4.75a1.73,1.73,0,0,0,.8,1.54,3.89,3.89,0,0,0,2.15.53,9.09,9.09,0,0,0,1.32-.08,1.39,1.39,0,0,0,.75-.35,1.29,1.29,0,0,0,.31-.74,10.58,10.58,0,0,0,.06-1.26v-4.39c0-.19.1-.28.29-.28h1.05c.19,0,.29.09.29.28v4.89a1.59,1.59,0,0,0,.83,1.44,4.33,4.33,0,0,0,2.21.49,6.43,6.43,0,0,0,1.31-.1,1.11,1.11,0,0,0,.7-.38,1.42,1.42,0,0,0,.28-.74,9.68,9.68,0,0,0,.06-1.21v-7c0-.19.1-.28.29-.28h1.05c.2,0,.29.09.29.28Z"/><path class="cls-2" d="M275.24,167.57a4.09,4.09,0,0,1-.4-.78,2.92,2.92,0,0,1-.16-1.06,2.83,2.83,0,0,1,.13-.81,2.48,2.48,0,0,1,.46-.86,2.73,2.73,0,0,1,.89-.68,3.15,3.15,0,0,1,1.42-.28,3.49,3.49,0,0,1,1.32.26,2.13,2.13,0,0,1,1,.75.22.22,0,0,1-.06.3l-.45.37a.21.21,0,0,1-.32,0,1.88,1.88,0,0,0-.67-.45,2.37,2.37,0,0,0-.9-.17,1.47,1.47,0,0,0-1.2.51,1.79,1.79,0,0,0-.43,1.23,1.86,1.86,0,0,0,.28,1,2.41,2.41,0,0,0,.6.71h3.12c.11,0,.17.07.17.2v.67c0,.13-.06.2-.17.2h-5.72c-.12,0-.18-.07-.18-.2v-.67c0-.13.06-.2.18-.2Zm2.55,21.2c0,.18-.1.28-.3.28h-1c-.2,0-.3-.1-.3-.28V170.31c0-.18.1-.28.3-.28h1c.2,0,.3.1.3.28Z"/><path class="cls-1" d="M18.42,149.86l-1.83-5.33H6.11l-1.82,5.33H0l9.73-26.54H13l9.73,26.54Zm-7-20.54L7.31,141.1h8.16Z"/><path class="cls-1" d="M42.35,145.58a7,7,0,0,1-2,2.46,8.86,8.86,0,0,1-3,1.53,13.61,13.61,0,0,1-3.84.52,15.68,15.68,0,0,1-5.25-.79,10.72,10.72,0,0,1-4.14-2.72l2.68-2.64a7.85,7.85,0,0,0,3.1,2,11.74,11.74,0,0,0,3.69.54,6.65,6.65,0,0,0,4-1.06,4,4,0,0,0,.39-5.76,3.43,3.43,0,0,0-1.11-.71,10.32,10.32,0,0,0-1.79-.41L32,138.08A8.9,8.9,0,0,1,27,136,6.64,6.64,0,0,1,25,130.89a7.94,7.94,0,0,1,.62-3.15,7.13,7.13,0,0,1,1.75-2.48,7.61,7.61,0,0,1,2.78-1.6,11.29,11.29,0,0,1,3.73-.56,13.16,13.16,0,0,1,4.58.71,10.82,10.82,0,0,1,3.66,2.31l-2.58,2.53A6.62,6.62,0,0,0,36.89,127a11.1,11.1,0,0,0-3.12-.43,5,5,0,0,0-3.59,1.18,3.86,3.86,0,0,0-1.25,3,3.7,3.7,0,0,0,.24,1.36,2.94,2.94,0,0,0,.77,1.1,5.65,5.65,0,0,0,3,1.23l3,.45a13.73,13.73,0,0,1,3,.76,7.62,7.62,0,0,1,2,1.21,6.12,6.12,0,0,1,1.62,2.35,8.44,8.44,0,0,1,.54,3.1A7.45,7.45,0,0,1,42.35,145.58Z"/><path class="cls-1" d="M63.71,149.86l-1.83-5.33H51.41l-1.83,5.33H45.29L55,123.32h3.25L68,149.86Zm-7-20.54L52.6,141.1h8.16Z"/><path class="cls-1" d="M87.64,145.58a7,7,0,0,1-2,2.46,9,9,0,0,1-3,1.53,13.71,13.71,0,0,1-3.84.52,15.7,15.7,0,0,1-5.26-.79,10.72,10.72,0,0,1-4.14-2.72l2.69-2.64a7.88,7.88,0,0,0,3.09,2,11.74,11.74,0,0,0,3.69.54,6.71,6.71,0,0,0,4.05-1.06,4,4,0,0,0,.39-5.76,3.47,3.47,0,0,0-1.12-.71,10.1,10.1,0,0,0-1.79-.41l-3.13-.45a8.86,8.86,0,0,1-5-2.12,6.61,6.61,0,0,1-1.94-5.07,7.93,7.93,0,0,1,.61-3.15,7.15,7.15,0,0,1,1.76-2.48,7.56,7.56,0,0,1,2.77-1.6,11.38,11.38,0,0,1,3.73-.56,13.25,13.25,0,0,1,4.59.71,10.69,10.69,0,0,1,3.65,2.31l-2.57,2.53A6.59,6.59,0,0,0,82.18,127a11,11,0,0,0-3.11-.43,5,5,0,0,0-3.6,1.18,3.9,3.9,0,0,0-1.25,3,3.7,3.7,0,0,0,.24,1.36,3.06,3.06,0,0,0,.77,1.1,5.68,5.68,0,0,0,3,1.23l3,.45a13.57,13.57,0,0,1,3,.76,7.3,7.3,0,0,1,2,1.21,6.12,6.12,0,0,1,1.62,2.35,8.44,8.44,0,0,1,.54,3.1A7.45,7.45,0,0,1,87.64,145.58Z"/><path class="cls-1" d="M118,149.86l-1.83-5.33H105.65l-1.83,5.33H99.53l9.73-26.54h3.25l9.73,26.54Zm-7-20.54-4.14,11.78H115Z"/><path class="cls-1" d="M126,149.86V123.32h4.07v22.93h12.78v3.61Z"/><path class="cls-1" d="M146.43,141.29v-3.54h10.89v3.54Z"/><path class="cls-1" d="M178.53,149.86l-1.83-5.33H166.23l-1.83,5.33h-4.29l9.73-26.54h3.25l9.73,26.54Zm-7-20.54-4.14,11.78h8.16Z"/><path class="cls-1" d="M201.83,149.86,200,144.53H189.53l-1.83,5.33h-4.29l9.73-26.54h3.25l9.73,26.54Zm-7-20.54-4.14,11.78h8.16Z"/><path class="cls-1" d="M229.23,149.86V132.12l-6.1,12.93h-3l-6.24-12.93,0,17.74h-4.06V123.32h4.06l7.72,16.52,7.57-16.52h4.06v26.54Z"/><path class="cls-1" d="M255.43,149.86l-1.82-5.33H243.13l-1.82,5.33H237l9.73-26.54H250l9.73,26.54Zm-7-20.54-4.13,11.78h8.16Z"/><path class="cls-1" d="M279.88,151.06l-2.67-2.65a8.89,8.89,0,0,1-2.57,1.25,10.37,10.37,0,0,1-3,.43,9.88,9.88,0,0,1-3.84-.73,9.53,9.53,0,0,1-3.11-2.11,7.49,7.49,0,0,1-1.49-2.05,9.72,9.72,0,0,1-.76-2.34,18.18,18.18,0,0,1-.28-2.82c0-1,0-2.18,0-3.45s0-2.41,0-3.45a18,18,0,0,1,.28-2.81,9.39,9.39,0,0,1,.77-2.35,7.38,7.38,0,0,1,1.49-2,9.69,9.69,0,0,1,3.11-2.11,10,10,0,0,1,3.86-.72,10.15,10.15,0,0,1,3.88.72,9.77,9.77,0,0,1,3.13,2.11,7.81,7.81,0,0,1,1.49,2,9,9,0,0,1,.74,2.35,18.17,18.17,0,0,1,.26,2.81c0,1,0,2.19,0,3.45s0,2.15,0,3.08a17.91,17.91,0,0,1-.19,2.55,12.31,12.31,0,0,1-.5,2.15,7.06,7.06,0,0,1-1,1.88l2.63,2.57Zm-2.77-17.8a17.28,17.28,0,0,0-.22-2.24,5.52,5.52,0,0,0-.48-1.53,5.22,5.22,0,0,0-.8-1.14,5.5,5.5,0,0,0-7.85,0,5.17,5.17,0,0,0-.79,1.14,5.52,5.52,0,0,0-.48,1.53,15.52,15.52,0,0,0-.23,2.24c0,.88-.05,2-.05,3.33s0,2.46.05,3.34a15.67,15.67,0,0,0,.23,2.24,5.55,5.55,0,0,0,.48,1.52,5.22,5.22,0,0,0,.8,1.14,5,5,0,0,0,1.72,1.19,5.47,5.47,0,0,0,2.22.45,4.49,4.49,0,0,0,2.71-.86l-2.79-2.79,2.23-2.24,2.56,2.57a6.88,6.88,0,0,0,.62-2.49c.09-1,.13-2.35.13-4.07Q277.17,134.58,277.11,133.26Z"/></g></g></svg>