<svg xmlns="http://www.w3.org/2000/svg" viewBox="0 0 148.55 228.89"><defs><style>.cls-1{fill:#8c4a2f;}</style></defs><g id="Layer_2" data-name="Layer 2"><g id="Layer_1-2" data-name="Layer 1"><polygon class="cls-1" points="148.55 0 148.55 24.34 134.38 32.7 134.38 7.99 148.55 0"/><polygon class="cls-1" points="14.16 141.33 14.16 214.72 35.23 214.72 35.23 204.54 49.4 196.55 49.4 214.72 70.82 214.72 70.82 184.2 84.99 175.84 84.99 214.72 106.06 214.72 106.06 163.85 120.22 155.5 120.22 228.89 0 228.89 0 85.74 14.16 77.39 14.16 127.16 35.23 127.16 35.23 65.4 49.4 57.04 49.4 127.16 70.82 127.16 70.82 45.05 84.99 36.7 84.99 127.16 106.06 127.16 106.06 24.34 120.22 16.35 120.22 141.33 14.16 141.33"/><polygon class="cls-1" points="148.55 40.69 148.55 228.89 134.38 228.89 134.38 49.05 148.55 40.69"/></g></g></svg>